<svg id="Layer_1" data-name="Layer 1" xmlns="http://www.w3.org/2000/svg" viewBox="0 0 424.82 582"><defs><style>.cls-1{fill:#e6e6ec;}.cls-2{fill:#292929;}.cls-3{fill:#f7f7f7;}.cls-4{fill:#f9f9f9;}.cls-5{fill:#f6f6f6;}.cls-6{fill:#00afff;}.cls-7{fill:#54d45a;}.cls-8{fill:#dc3a43;}.cls-9{fill:#e2743d;}.cls-10{fill:#f3e324;}.cls-11{fill:#ededed;}.cls-12{fill:#eaeaea;}</style></defs><path class="cls-1" d="M14.24,0H410.58a14.24,14.24,0,0,1,14.24,14.24V573a9,9,0,0,1-9,9H16A16,16,0,0,1,0,566V14.24A14.24,14.24,0,0,1,14.24,0Z"/><rect class="cls-2" y="1.92" width="424.82" height="550.5"/><path class="cls-3" d="M315.39,134.44a4.46,4.46,0,0,0-3.75-1.18C290.16,127,269.4,128,252.23,143.53c-18.68,16.89-25.69,38.52-20.54,63.59.21,1,.51,2,.74,3,7.12,31,25.23,44.4,57,41.7,11-.93,22-2.48,32.95-4.05,4.07-.58,5.48.25,5.42,4.68-.23,17.54-.3,35.09.06,52.63.1,4.83-1.8,6.55-6,7.67-21.88,5.85-43.51,3.69-64.92-2.18-4.88-1.34-10.29-1.27-14.62-4.49a18.74,18.74,0,0,0-7.16-3.55l-10.77-6.38L221.14,294l-13.62-11.4-1.33-1.17c-11.77-13.09-22.4-26.87-28.25-43.83a140.72,140.72,0,0,1-6.61-29.23c-.85-7-2.53-14-2.23-20.92,1-22.85,9.23-43.34,22.18-62,9.95-14.31,23.11-25.39,37.07-35.58,20.35-11.75,41.88-19.32,65.72-19.38,10.35,0,20.21,2.49,30.19,4.56,3.41.71,3.46,2.76,3.45,5.46-.06,17.29-.21,34.59.09,51.88.11,5.7-1.21,7.21-6.26,4.06a8.26,8.26,0,0,0-2.38-.63A4.65,4.65,0,0,0,315.39,134.44Z" transform="translate(-89.59 -11)"/><path class="cls-4" d="M334.4,243.75c.12-13.13.37-26.26.26-39.39,0-4,.83-5.47,5.17-5.41,18.77.25,37.55.13,56.32.11,2.34,0,4.34.13,6.1,2.23,12.53,15.07,25.21,30,37.81,45,.22.26.14.76.22,1.24-1.67,1.21-3.58.57-5.37.57q-43.49,0-87,0c-1.65,0-3.31.24-5,.37C340,247.11,334.39,250.47,334.4,243.75Z" transform="translate(-89.59 -11)"/><path class="cls-5" d="M378.13,398.6c14.55,3.72,18.73,9.81,16.56,24.11-1.29,8.51-5.89,13.88-14.74,15.56-15.52,3-31,1.79-46.35-1.71-6.53-3.92-9.25-10-9.48-17.29-.25-8.14-.59-16.3-.26-24.42.49-12.43,6.25-18.51,18.58-20.52,8.9-1.46,17.91-1,26.88-1.3l12.54,2.32c2.83,1.36,5.17,3.78,8.55,4,.76,3.8,2.79,7.24,2.6,11.33-.12,2.67-.93,3.68-3.59,3.64-3.91-.06-7.82.14-11.73.23h-2.27l-4.84,0a8.41,8.41,0,0,1-5.22-3.62c-3.34-4.79-8.86-2.67-13.11-1.75-3.34.72-4.14,4.92-4,8.49.07,1.61.24,2.88,2.52,2,6.58-2.45,13.57-.68,20.3-1.77l3.86.17A3.49,3.49,0,0,0,378.13,398.6Zm-19.67,25.57v.12c2.48,0,5,.16,7.44,0,3.43-.28,3.53-2.9,3.45-5.5-.07-2.44.45-5.41-3.22-5.56a110.66,110.66,0,0,0-13.63.07c-3.7.32-4.36,3.33-4.17,6.47s1.69,4.91,5.17,4.46A39.06,39.06,0,0,1,358.46,424.17Z" transform="translate(-89.59 -11)"/><path class="cls-6" d="M130.17,440.46c-1.14-9.76-1.14-9.76,8.51-9.75l160.41.05c2.08,0,4.17-.14,6.25-.21,3.31,1.17,4.68,3.54,3.62,6.85s-4,3-6.78,3Q216.17,440.41,130.17,440.46Z" transform="translate(-89.59 -11)"/><path class="cls-7" d="M301.57,426.84l-2.5,0H131c-3.35-8.18-2.22-10,6.26-10l149.24,0c2.5,0,5-.13,7.51-.2h5.08c3.74.73,8.51-1.31,10.59,3.91-.24,2.91-1.51,5.09-4.32,6.2l-.62-.05-.62.11Z" transform="translate(-89.59 -11)"/><path class="cls-8" d="M306.59,375.33c4.28,3,3.76,5.92-.07,8.84q-83.79,0-167.6.06c-9,0-9,0-9-8.74l2.29-.43a27,27,0,0,0,3.09.33Z" transform="translate(-89.59 -11)"/><path class="cls-9" d="M129.49,390.51l1.42-1.62c2.49.13,5,.37,7.47.37q79.83,0,159.66,0c3.32,0,6.69-.33,9.9.9,2.46,3.72,1.59,6.44-2.49,8.18-2.49-.09-5-.27-7.48-.28L129.76,398l0,0Q129.64,394.27,129.49,390.51Z" transform="translate(-89.59 -11)"/><path class="cls-10" d="M131,412.38c-1.55-3.44-3.47-6.93,1.22-9.57,2.28.11,4.57.3,6.85.3q60,0,120,0c15.4,0,30.81-.18,46.22-.27,4.29,2.06,5.82,4.77,2,8.7-4.16.13-8.33.38-12.49.38q-78.16,0-156.34.05C136,412,133.51,412.24,131,412.38Z" transform="translate(-89.59 -11)"/><path class="cls-11" d="M154,326.64c1.84.11,3.68.24,5.52.32,8.86.35,10.49,1.58,13.09,9.92-1.39,3.24-8.18,5.42-10.48,2.87-5.51-6.11-12.29-1.5-18.33-2.7-.36-.08-1.28,1-1.42,1.71-.88,4.21-2.66,8.67,1.17,12.31,2.15,2,16.3,1.54,17.15-.68,2.19-5.69,6.8-3.18,10-2.8,3.7.44,1.4,4.48,2.09,6.85l-2.7,4.47-2.46,1.37c-7.36,2.13-14.94,1.43-22.44,1.76l-3.75-.48c-3.43-1.1-7-1.93-9.49-4.84l-1-2.51c-.26-1.18-.53-2.35-.8-3.53,0-.84-.07-1.67-.11-2.51.08-1.66.21-3.32.23-5,.14-13,2-15.07,14.89-16.49Z" transform="translate(-89.59 -11)"/><path class="cls-12" d="M291.55,360.54c-8.34-.14-8.21-.13-7.89-8.48.1-2.44,2.18-5.66-2.45-7-7.77-2.31-10.8.37-9.36,9.12.41,2.51,1.15,4.71-1.43,6.59a5.67,5.67,0,0,1-5.33.55c-1.7-.5-2.27-1.92-2.15-3.93.32-5.4.39-10.82.33-16.23,0-3.13,2.24-4.94,4.16-3.83,4.7,2.71,8.85-1.65,12.69-.49,8,2.4,15.6,1.07,23.49.12,5.59-.68,8.85,2.89,9.4,8.58.24,2.49.51,5,.58,7.47.18,7.62-.29,8-8.21,7.34l-1.07-1.26c.18-3.11.38-6.22.53-9.34.2-4.15-2-6.28-5.95-6.4-3.67-.11-5.78,1.74-6,5.64-.19,3.73.5,7.51-.63,11.18A.53.53,0,0,0,291.55,360.54Z" transform="translate(-89.59 -11)"/><path class="cls-12" d="M241.61,337.27c.42,0,.83,0,1.25-.1,14-1.81,21.13,6.76,17.19,20.52-.95,3.33-3.24,2.54-5.39,2.69s-3.54-.83-3.53-3.21,0-4.59,0-6.88c0-3.74-.92-6.67-5.47-6.58s-6.29,3-6.74,7a4.12,4.12,0,0,0,.21,1.85,6.42,6.42,0,0,1-1.52,7.34c-1.45,1.32-4.66,1.35-5.84,0a7.78,7.78,0,0,1-1.75-7.71c.89-2.89,1.83-6.77-2.6-8.39-5.1-1.86-8.51.53-8.67,6,0,1.25,0,2.5.06,3.75.1,7.57-1.59,8.61-9,5.57l-.42-17.49c.26-3,1.58-5.38,4.9-4.19,4.31,1.54,8.07-.1,12-1h2.51l6.23,1.5C237.67,341.81,239.58,339,241.61,337.27Z" transform="translate(-89.59 -11)"/><path class="cls-12" d="M352,353.81c-1.08-.62-2.65-1.56-3.19-.05-2.59,7.32-9,6.38-14.65,7a29,29,0,0,1-6.24-.19c-10.32-1.15-15.59-10.19-10.63-19.36,3.66-6.75,11-4.76,17-4.91,5.1-.13,11-.66,13.7,5.14,1.34,2.89,1.23,6.45,2,11.21.82-3.95,1.33-6.46,1.85-9,2.45,2.4,2.12-.65,4.25.45C356.11,348.71,351.59,349.26,352,353.81Zm-20.11.28c4.85.16,8-.53,7.87-5.61-.1-6-4.7-5-8.12-5.17s-6.6.87-6.67,5.51C324.83,354.77,329.17,353.82,331.85,354.09Z" transform="translate(-89.59 -11)"/><path class="cls-11" d="M351.75,354.15c-.37-4.56,4.48-7.13,4.48-11.67-2.14-1.1-2.14,4-4.58,1.57,2-7,7.17-9.23,17-7.19,1.77.37,3.48,1,5.06,1.51,2.35-3.47-1.5-8.29,3.1-10.85l6.49,1.1.06-.14a15.76,15.76,0,0,0,.56,6.79q-.33,3-.65,5.94l-.21,14.6-3.7,4.92h0c-6.22-3.05-12.45,1-18.73,0C356.37,360,352.34,359.57,351.75,354.15Zm16.17.26c2.64-.1,6.52-.47,6.66-5.69.12-4.57-3.29-5.48-6.78-5.45s-7.93-.33-8.13,5.29C359.5,353.48,362.72,354.35,367.92,354.41Z" transform="translate(-89.59 -11)"/><path class="cls-11" d="M175.58,341.15c6.55-5.76,14.49-4,22.11-4.16,1.69,0,.37.3,1.91-1.94-.07,2.6,3.18,1.61,3.18,1.61-.23,2.83,3.17,3.18,4,5.24.79,5,1.11,10-.12,15-5.13,5.34-11.88,4-18.19,4.36-2.27.12-4.56-.14-6.85-.23l-2.29-.94a12.12,12.12,0,0,1-4.42-5.89C174.56,349.79,174.08,345.42,175.58,341.15Zm14.35,13.32c4.56.14,8.4.18,8.67-5.22s-3.88-5.63-7.55-5.85-7.09.68-7.34,5.48C183.45,353.94,186.71,354.58,189.93,354.47Z" transform="translate(-89.59 -11)"/><path class="cls-4" d="M440.79,142.12c-9.05,11.19-18.65,21.22-26,32.68-8.19,12.71-18.25,17.28-33.18,15.77-13.86-1.4-28-.41-42-.18-3.88.06-5-1.08-4.93-4.95.25-13.17.19-26.34.07-39.5,0-3.33.69-4.81,4.49-4.79,32.81.21,65.62.22,98.43.32A20.19,20.19,0,0,1,440.79,142.12Z" transform="translate(-89.59 -11)"/><path class="cls-5" d="M472.14,392.63c0,5,.18,10-.06,15-.16,3.32,1.06,4.77,4.28,4.16,5.54-1.06,6.31,2,5.83,6.39a22.59,22.59,0,0,0,0,5c.38,3.25-.87,4.79-4.17,4.28-4.52-.69-6.76.82-5.9,5.71.76,4.26-.91,6-5.39,5.68a138.43,138.43,0,0,0-14.4.17c-4.44.17-6.89-1.57-6.25-6.24.57-4.13-.95-5.33-5.11-5.16-10,.43-20,.45-30.06.44-7.69,0-8.45-1.36-8.55-8.75-.11-8,2.79-13.76,8.86-18.93,8.58-7.29,16.52-15.33,24.58-23.21,2.08-2,4.14-3.27,7.09-3.24,8.56.08,17.12.09,25.68,0,2.74,0,3.67,1,3.6,3.67C472,382.6,472.13,387.62,472.14,392.63Zm-43.2,19.23c5.5,0,9.81-.05,14.11,0,2,0,3.13-.55,3.1-2.77-.06-4.84,0-9.68,0-16C439.21,399.13,434,404.43,428.94,411.86Z" transform="translate(-89.59 -11)"/><path class="cls-12" d="M387.34,346.48c.42.81-1.16-1.05,1.52-5.22,3.84-.74.42-2.81,1.84-1.5,5.57-1.95,11.37-2.09,17.16-2,8.47.2,11.55,2.95,12.35,10.63.9,8.55-1.15,11.46-9.62,13.64-1.61.72,0,0-3.3.72,1.83.16.3-.16-5.5,0-.61-.1-1.22-.22-1.84-.28-10-1-10.54-1.55-12.89-11.28A15.12,15.12,0,0,1,387.34,346.48ZM404,355.4c3-.11,6.77.31,7-5,.24-5.75-3.92-5.74-7.6-5.84s-7.24.29-7.19,5.56S399.83,355.35,404,355.4Z" transform="translate(-89.59 -11)"/><path class="cls-12" d="M480.55,353.49c-.32,2.95-1.67,5.29-4.57,6.13a33.93,33.93,0,0,1-21.48-.31c-6.09-2.23-4.86-8.14-4.71-13,.15-4.43,1.91-8.17,6.93-9.12a42.9,42.9,0,0,1,18,.33c6.9,1.65,6.58,7.09,6.05,12.49-5.17,1.26-10.41.21-15.59.58-2.09.15-6-1.8-5.88,2.12.07,3,3.74,2.57,6.18,2.69a9,9,0,0,0,5.45-1C474,352.43,477.23,352.6,480.55,353.49Zm-8.68-8.89a2.54,2.54,0,0,0-2.17-2c-3.5-.85-7-1.32-10.21.92a1.78,1.78,0,0,0-.33,1.53c3,2.21,6.39,1.2,9.66,1.12C470,346.14,471.32,346,471.87,344.6Z" transform="translate(-89.59 -11)"/><path class="cls-12" d="M421.54,348.84c0-1.25,0-2.51,0-3.76.15-8.52.29-8.71,8.78-6.25,2.13.61,3-1,4.47-1.45,4.74-1.5,9.23-1.38,12.47,2.8,1.48,1.91,2.45,5-.07,6.7-1.92,1.32-5,2-6.74-.56s-4.06-3.67-6.9-2.58c-3.17,1.22-2.78,4.32-2.9,7-.08,1.87,0,3.75,0,5.63.05,2.74-1,4.24-4,4.2s-4.85-.93-4.84-4.21v-7.5Z" transform="translate(-89.59 -11)"/></svg>